<svg xmlns="http://www.w3.org/2000/svg" style="display: block; background-color: transparent;" version="1.1" viewBox="570 505 1450 1450"><defs><linearGradient id="a" x1="978.498" x2="857.171" y1="1880.44" y2="1145.88" gradientUnits="userSpaceOnUse"><stop class="stop0" offset="0" stop-color="rgb(184,128,74)" stop-opacity="1"></stop><stop class="stop1" offset="1" stop-color="rgb(212,165,107)" stop-opacity="1"></stop></linearGradient></defs><path fill="rgb(45,110,78)" d="M1486.89 624.944c20.37-.326 53.05 3.589 73.54 6.864 139.48 22.285 270.17 87.933 354.49 203.761 101.33 139.2 92.52 300.721 67.46 462.251-6.62 42.66-15.79 88.04-28.39 129.21-43.93 143.77-133.77 269.18-255.76 357.03-134.92 96.6-297.99 145.89-463.82 140.2-39.74-1.24-72.16-5.28-111.38-11.48 22.84-4.36 44.62-11.4 66.29-19.69 12.25-4.68 28.42-14.03 40.75-16.14 9.84-1.69 25-1.9 35.36-2.46 17.86-.89 35.7-2.35 53.47-4.38 82.39-9.78 155.04-34.39 229.8-68.93 99.35-48.3 185.5-119.98 251.08-208.89 107.45-146.06 148.6-328.48 85.89-501.9-29.72-82.19-85.64-163.135-156.46-215.163 3.17 4.448 6.8 8.89 10.14 13.24 106.48 138.583 165.52 300.493 124.89 474.363-5.76-15.4-10.56-24.23-23.98-34.64-18.16-14.08-41.65-23.33-62.18-34.32-60.33-32.32-110.28-69.98-150.86-125.67-63.12-86.61-74.33-189.653-74.55-293.667-.1-47.444.95-97.145-11.06-143.613-7.4-28.805-19.6-56.162-36.06-80.928-4.35-6.447-16.18-19.6-18.66-25.048"></path><path fill="url(#a)" d="m954.346 1628.3.138-276.39-.095-86.48c-.031-15.44-.239-30.94.215-46.38.36-5.13.256-7.61 4.176-11.16 8.297-7.53 17.704-14.04 26.802-20.58 36.218-26.04 71.948-52.69 107.738-79.3 3.82-2.84 7.53-4.48 12.05-5.8 4.42.74 2.48-.15 5.93 3.01 5.23 11.95-.01 354.36 2.04 398.79 14.2.62 58.88 1.15 69.26 5.96 4.84 5.6 3.25 62.65 3.25 73.98l.02 107.07-.01 92.89c0 9.95 2.52 45.27-3.76 53.66-2.76 3.69-19.66 9.45-24.51 11.1-40.92 13.74-92.73 24.59-135.65 21.72-16.9-1.13-49.212-12.94-65.569-19.41-95.062-37.72-178.722-99.43-242.815-179.13-15.152-19.13-42.538-57.88-51.878-79.98l.981-1.28c7.046.42 9.755-.27 15.357-4.7 12.883 13.97 28.026 29.85 43.246 41.07 1.758-79.3-1.731-159.69.63-239.08.421-14.15 36.235-33.02 46.243-43.07 8.465-7.12 25.612-20.39 34.697-25.81 13.348.78 101.666 4.76 107.349 8.46 1.878 4.83 3.049 10.59 3.104 15.8.994 94.26-.832 188.77.293 283.01z"></path><path fill="rgb(90,143,115)" d="M1462.97 1094.61c4.28.23 4.2.24 8.28 1.63.82.93 1.63 1.85 2.44 2.78 1.77 22.63 1.99 62.75 2.21 83.62 12.25 5.01 72.83 32.44 80.83 38.93 4.01 11.8 1.94 118.69 1.92 137.52l.1 297.53c8.38.52 19.9.22 28.51.25l-.1-133.52c-.06-29.24-1.43-69.01 1.65-97.86.46-4.33 61.33-33.95 69.33-37.46 15.57 7.12 99.6 55.57 108.56 64.23 5.66 5.47 2.85 91.68 2.81 104.84-61.8 82.77-122.24 134.49-211.54 185.91-31.63 16.7-56.21 28.64-89.66 41.37a667.67 667.67 0 0 1-182.45 41.62c-7.31.67-24.36 3.11-30.55.33-4.23-7.15-2.4-79.57-2.4-93.19l-.07-177.5c-.03-47.48-1.11-101.49 1.06-148.88.31-6.66 68.35-38.87 78.35-43.94 10.5 3.83 17.02 4.24 17.19 17.23.24 18.7 0 37.38-.04 56.08l-.09 111.41c11.15.38 24.12.02 35.41-.01l-.28-220.9c-.02-20.03-1.21-92.37 1.7-106.14 6.18-7.58 59.16-32.47 71.26-38.52.44-25.18.48-56 2.14-81.51.1-1.59 2.46-4.58 3.43-5.85"></path><path fill="rgb(184,128,74)" d="M939.663 735.461c95.447-9.017 180.077 61.163 188.887 156.627 8.8 95.464-61.56 179.942-157.046 188.542-95.185 8.57-179.343-61.53-188.122-156.701-8.779-95.166 61.135-179.479 156.281-188.468"></path><path fill="rgb(184,128,74)" d="M601.269 810.582c21.616-2.025 68.916 14.51 92.348 17.054 11.172 1.213 33.103 5.543 29.852 20.621-1.368 6.345-3.908 8.597-9.243 11.998-.051.004-3.473.286-4.081.189-35.418-5.899-71.11-13.588-106.136-21.581-15.498-3.536-14.85-19.148-2.74-28.281"></path><path fill="rgb(184,128,74)" d="M709.538 984.67c11.634-.75 20.131 8.573 15.373 19.44-1.373 3.13-3.611 5.8-6.451 7.7-4.97 3.38-25.81 11.42-32.131 14l-68.516 27.91c-19.032-.19-22.832-19.84-8.687-28.05 8.309-4.82 23.449-10.08 32.715-13.83z"></path><path fill="rgb(184,128,74)" d="M927.251 536.573c2.549-.05 5.084.093 7.578.657 3.787.858 6.659 3.148 8.555 6.55 3.346 5.999 6.943 106.436 4.828 111.539-2.023 4.882-5.481 6.79-9.887 9.19-1.235.057-2.47.135-3.706.111-4.999-.097-9.014-1.777-12.255-5.737-2.925-3.574-7.897-105.688-5.535-112.171 1.896-5.203 5.932-7.432 10.422-10.139"></path><path fill="rgb(184,128,74)" d="M1146.52 591.525c23.36.284 20.48 21.114 7.59 34.422-13.6 14.048-42.72 64.363-57.41 72.534-38.44.813-6.43-38.684 3.8-50.626 10.09-11.787 33.75-51.494 46.02-56.33"></path><path fill="rgb(184,128,74)" d="M718.542 627.112c2.484-.056 4.969.119 7.421.52 9.88 1.665 62.841 67.054 72.946 78.075 7.579 8.266-1.642 17.677-9.71 22.142-11.942-.568-15.274-6.76-22.797-15.238-18.515-21.2-38.77-41.493-56.249-63.51-6.732-8.479 1.222-17.504 8.389-21.989"></path><path fill="rgb(184,128,74)" d="M638.819 1534.88c6.742 10.37 14.937 20.91 22.077 31.26 6.45 6.41 10.784 13.49 17.12 19.75-5.602 4.43-8.311 5.12-15.357 4.7l-.981 1.28c-2.109-2.58-4.245-7.92-5.742-11.14-7.773-16.32-11.756-28.79-17.117-45.85"></path><path fill="rgb(184,128,74)" d="M638.819 1534.88c6.742 10.37 14.937 20.91 22.077 31.26l-1.649 1.63c-1.543-1.29-2.912-2.44-4.41-3.79l-1.186 1.54c1.228 5.61 4.378 11.43 2.285 15.21-7.773-16.32-11.756-28.79-17.117-45.85"></path></svg>
